# xmcd
#
# Track frame offsets:
#	150
#	16525
#	30330
#	47947
#	62792
#	78845
#	94670
#	108435
#	125742
#	140785
#	156590
#	170582
#	181642
#
# Disc length: 2562 seconds
#
# Revision: 5
# Processed by: cddbd v1.5.2PL0 Copyright (c) Steve Scherf et al.
# Submitted via: audiograbber 1.83.01
#
DISCID=a60a000d
DTITLE=A. J. Croce - Fit To Serve
DYEAR=1998
DGENRE=Blues
TTITLE0=Fit To Serve
TTITLE1=I Don`t Mind
TTITLE2=Lover`s Seranade
TTITLE3=Trouble In Mind
TTITLE4=Texas Ruby
TTITLE5=Uncommon Sense
TTITLE6=I`ll Get Through
TTITLE7=Cry To Me
TTITLE8=So In Love
TTITLE9=Count The Ways
TTITLE10=Too Late
TTITLE11=Judgement Day
TTITLE12=Nobody Else
EXTD=
EXTT0=
EXTT1=
EXTT2=
EXTT3=
EXTT4=
EXTT5=
EXTT6=
EXTT7=
EXTT8=
EXTT9=
EXTT10=
EXTT11=
EXTT12=
PLAYORDER=
